PathFileType	4	(X/Y/Z)	10_1_tpose_p0_0-198.trc
DataRate	CameraRate	NumFrames	NumMarkers	Units	OrigDataRate	OrigDataStartFrame	OrigNumFrames
60.0	60.0	6	27	m	60.0	49	199
Frame#	Time	RHip			RKnee			RAnkle			RBigToe			RSmallToe			RHeel			LHip			LKnee			LAnkle			LBigToe			LSmallToe			LHeel			Neck			Head			Nose			RShoulder			RElbow			RWrist			RThumb			RIndex			RPinky			LShoulder			LElbow			LWrist			LThumb			LIndex			LPinky			
		X1	Y1	Z1	X2	Y2	Z2	X3	Y3	Z3	X4	Y4	Z4	X5	Y5	Z5	X6	Y6	Z6	X7	Y7	Z7	X8	Y8	Z8	X9	Y9	Z9	X10	Y10	Z10	X11	Y11	Z11	X12	Y12	Z12	X13	Y13	Z13	X14	Y14	Z14	X15	Y15	Z15	X16	Y16	Z16	X17	Y17	Z17	X18	Y18	Z18	X19	Y19	Z19	X20	Y20	Z20	X21	Y21	Z21	X22	Y22	Z22	X23	Y23	Z23	X24	Y24	Z24	X25	Y25	Z25	X26	Y26	Z26	X27	Y27	Z27	
49	0.8166666666666667	0.3076281964929431	0.521350337235833	0.9238898520788571	0.31729288074114753	0.648288767252219	1.3812866222003788	0.327682563047518	0.7773738304174393	1.7906484804350535	0.27339516744008835	0.6233794274728206	1.8586424101184824	0.3346708803843073	0.6447302786882961	1.8538820813916492	0.2936140892849897	0.9158115039056898	1.873586018862536	0.07341851135413797	0.5195275590860303	0.9286970064386171	0.08554393683203511	0.6274288994068252	1.3737356621918524	0.0841671644324465	0.7723689356517444	1.7811101046525286	0.12346916161774413	0.6324849183649209	1.8553522291011744	0.05955196900463724	0.651649143602721	1.8367792502387223	0.09856858374608703	0.8986446113281474	1.8466089733911883	0.19598194792036555	0.38762694074191156	0.33175126721035486	0.21721360484442345	0.27483035175518483	0.0996786315612013	0.2103903590663468	0.2620130452192077	0.2322501424055138	0.3745126841318556	0.42368841908404076	0.38828299655742	0.636241079106005	0.3937984048837377	0.41964049565069333	0.8695760469282872	0.37039258612544707	0.40982019901271355	1.0019509051529651	0.3301160891582922	0.42533451293260643	1.0366317614662242	0.3431643962950954	0.4371322131022025	1.0059519985654182	0.36880439053311953	0.45450243885642005	0.004498324382065026	0.3894371776811823	0.39911500764660396	-0.22954183189335886	0.36888313958109265	0.41695153254192335	-0.4856609041302273	0.3055867332147858	0.40466347176623074	-0.5812133877933218	0.2542314943108001	0.44128510395548753	-0.6301819664714353	0.2847733389642902	0.40651370027895034	-0.6289858658956963	0.3136605542383978	0.3948316114238815
50	0.8333333333333334	0.3076591049648931	0.5212850036658636	0.9238537891919035	0.31251287993238513	0.6636567066739143	1.3850387361308276	0.32768932301782255	0.7774437224544858	1.7907132005237314	0.27324658521766154	0.6233717312470658	1.8581990304307985	0.32979847858514794	0.660981504840262	1.8601822275341893	0.2936514397116173	0.9161758615101115	1.8737747816701995	0.07336526047518001	0.5195594317379731	0.9287011390189734	0.07934448305457009	0.643097412206383	1.3734855912803603	0.08419309493768884	0.7723543754529932	1.7811360637438127	0.12335757183435127	0.6330302476062215	1.8554474511571508	0.059599329851854836	0.6517704280011438	1.836669771693354	0.09859412748350352	0.8983152950549658	1.846467370572449	0.19595630047031695	0.3874201729492552	0.3317332824407915	0.21722407044512465	0.2749099798810117	0.09964040478841137	0.21488162759437063	0.2509319667665273	0.23375241123882398	0.3744935441523607	0.42425357556738597	0.39176325168166043	0.6362167383667985	0.3936791707099845	0.41965094210779785	0.8695013473359677	0.37007235943921113	0.40997425687794126	1.0010078457442033	0.32803192579672585	0.4250621094184039	1.0284431260347653	0.308626116934687	0.44344323631184035	1.0050261033492738	0.3670453772250282	0.4544846155854155	0.0028580580609861364	0.37724858620424784	0.4004058098016385	-0.22946536078560542	0.3688609739611829	0.4169473849318484	-0.48560065985488526	0.3055134676474527	0.4045872954310676	-0.5915208877554965	0.26294829792905455	0.4447401997259787	-0.6301667594802427	0.28514026261774433	0.4067791288159299	-0.6291274588498205	0.3157819751738561	0.3991765625736838
51	0.85	0.30756994515479535	0.5211277767263073	0.9239427409797029	0.3173261776767542	0.648278643325276	1.3811967837867452	0.3276990806873899	0.7773717971425664	1.7905688171124614	0.274360087165905	0.6216091582625802	1.8536160710214198	0.33748213475463845	0.6589295506747295	1.8586006588352906	0.2924601815854727	0.912384427327072	1.8670754476721183	0.0733143844744502	0.5193661971236272	0.9286984482941951	0.08513400241393683	0.6283670571745591	1.3699252984819026	0.08421822293483748	0.7723891718833781	1.7811238683706463	0.12345697818680564	0.6325315040934183	1.855329020925827	0.05962196982550315	0.6514306023744698	1.8365223330346094	0.09850433505700118	0.8983584256941072	1.8464190835374745	0.19595115829509754	0.3875787129123762	0.33171150766259483	0.2171974865616663	0.27484833232631084	0.09963919828382523	0.21484855411724138	0.2508062462085641	0.23379505667329822	0.3744667666017831	0.423581081724152	0.38825822578409247	0.6325230836648289	0.38340038648439534	0.4206224897773875	0.873666423083922	0.37102444484864705	0.4132261674880679	1.0026240505373214	0.32737938012004464	0.43243512058217376	1.022765120944801	0.31060995163012844	0.44374698997043605	0.999022751345702	0.35543385604536826	0.4521392897425467	0.004448030907283236	0.38955639297012973	0.39925187941267476	-0.22933267222455656	0.3688002029360738	0.417196134758074	-0.48563007189603424	0.3055250046827398	0.40485015635719784	-0.5851574801781867	0.2548499973052255	0.44913676828147886	-0.6310811263933813	0.2876704440178625	0.41443014619965474	-0.6395561943392147	0.32333124016072284	0.39761482980953017
52	0.8666666666666667	0.3075964523600332	0.5212057385898666	0.9239749656051006	0.31730349124406804	0.6484003247001789	1.3813041205489356	0.327707143686645	0.7771734375162354	1.7907542407671018	0.2742915854866358	0.621489234804282	1.8535503858401052	0.3298454305550014	0.6607209741674144	1.8601077044223304	0.29778856142660837	0.9001665520543813	1.871697183390681	0.07334469151434606	0.5193094546448426	0.9287778498561957	0.08582219576150857	0.6312587270381765	1.3746787434383316	0.08347464570303349	0.7689814558650576	1.775777739565696	0.12257427634860571	0.6297976558815479	1.8499996520358366	0.05949125387949935	0.651481935459665	1.8363940478379086	0.09862205642617113	0.8980176453457617	1.8463157908238872	0.19595554996662293	0.387464785377987	0.33171607655928503	0.21717948263925163	0.27480901517082884	0.09962405590089045	0.2148598076077201	0.2507202213216289	0.233765963864281	0.3744207871851718	0.424322204914099	0.39174035872822766	0.6325505070961167	0.3835359150507099	0.42059472992141755	0.8737261260275234	0.3707689507168897	0.4132861138867187	1.0020528744330994	0.32904954401308095	0.4355702576951528	1.0226646315293864	0.3268786354736983	0.4459510099486199	1.0081804043114602	0.3676968505902393	0.4542832129809138	0.002793930305137982	0.3773454938563345	0.40038657060767324	-0.2300069949868549	0.3568073928859557	0.41826550143752095	-0.49202115078995207	0.313162667309334	0.40041308717388224	-0.5814597081591648	0.2579208623290274	0.4490879877490617	-0.6298567964693264	0.2747206821209892	0.4160394791870964	-0.6398362217452039	0.3238250105317935	0.39727175028418693
53	0.8833333333333333	0.3075934405078074	0.5212645344594942	0.9240186818894471	0.3172951570157334	0.6482849167153735	1.38126528856529	0.3276954685735587	0.7772731105777542	1.790607025743638	0.2732775883107623	0.623066179451789	1.8581569281488246	0.3345188995619064	0.6444024900213894	1.8535693490334646	0.2924206003706766	0.9121942750114959	1.8669263313512527	0.07332118546127774	0.5194442447361686	0.9288098832046507	0.08586930828927317	0.6312138437065947	1.3745616485441747	0.08346400566894475	0.7690765495174332	1.7758726128627838	0.1234213527564361	0.6324662760930927	1.8553612741873926	0.05784878433653414	0.6370108663067505	1.831376812276133	0.09854203063751803	0.8983826503844675	1.8465282856155143	0.19596620729463748	0.38746318947182773	0.3317433192196986	0.21718541887239068	0.2748232376523674	0.09966219488709965	0.2079975728941216	0.25101401232256665	0.23401658614995235	0.3745217366193373	0.42356595157096927	0.3883148072520738	0.6362896733127975	0.3939756733644637	0.4196196074244022	0.8760112878681714	0.3562717802580978	0.41750753040924593	1.0086278665619257	0.31510527732191884	0.4400471395071336	1.0275414232699756	0.3283483126339755	0.4464562201941839	1.0039546622766593	0.3674977708323887	0.45481982630988266	-0.0028843608524258078	0.38967924162870016	0.3994748772053081	-0.23004688944360738	0.3561843388822892	0.4185618705020185	-0.4923207097836805	0.31533503705909804	0.40444503924438285	-0.5816539648770797	0.25849872975524146	0.44929864614812515	-0.6369595273825901	0.2854863088407364	0.41855069895445557	-0.6379458857388872	0.3302151664544192	0.39964199084025687
54	0.9	0.30797138480558656	0.5205111305245399	0.9278072341487743	0.3173308163136975	0.6484177157050595	1.3813864933646147	0.3277153579868414	0.7771539398267885	1.7908160250858203	0.2732965399697884	0.6231594241179008	1.8581955096725766	0.3346330283653645	0.644337824577453	1.8536510283485268	0.29237693501631706	0.9176519424412457	1.878544288286446	0.07330660137075334	0.5193814148225027	0.9288018316847847	0.08517348749367078	0.6286017736019842	1.3699114444565244	0.08347000123669532	0.7690243909973233	1.7758534831464379	0.12343254639010737	0.6325917367033862	1.8553700513289098	0.0578343372648448	0.6369777857113871	1.8313066147576196	0.098601933523673	0.8984278226425039	1.8465461239007115	0.19599300986157991	0.3874298982074612	0.3317454383673443	0.2171778199760576	0.27486648384658563	0.09964308936625106	0.21483738160733032	0.25068617445157687	0.2337970579439705	0.37442570154355304	0.42428014920999496	0.3916908526595274	0.6324332870039934	0.38329743246449044	0.4206451824954267	0.8760092948199052	0.3561963302027809	0.4175020644205333	1.0089357437159747	0.3151921079656827	0.44010528742313615	1.032334448226008	0.32391765872653705	0.4465407462332395	1.0041526213178644	0.3673297701831576	0.4547014315470987	-0.0028589536703191925	0.3896895156982772	0.399376731568252	-0.23331279248401052	0.3656429808275063	0.41757142637151407	-0.4925920571535416	0.31611182501208074	0.4076776433851599	-0.581774421758696	0.2599343666948513	0.4555704298813351	-0.6383905988872658	0.2987709095013901	0.4174289826096599	-0.6380631147441888	0.33048372555560546	0.39999206991179626
